<?xml version="1.0" encoding="UTF-8"?><svg id="katman_1" xmlns="http://www.w3.org/2000/svg" viewBox="0 0 768.52 878.11"><defs><style>.cls-1{fill:#cbf47e;}.cls-1,.cls-2,.cls-3,.cls-4,.cls-5{stroke-width:0px;}.cls-2{fill:#fbfcfe;}.cls-3{fill:#0d560d;}.cls-4{fill:#083a08;}.cls-5{fill:#259028;}</style></defs><path class="cls-3" d="m767.25,511.15c2.57,12.29-.43,24.09-4.1,35.8-4.85,15.48-10.06,30.89-13.98,46.61-2.71,10.86-3.71,22.19-5.09,33.36-2.73,22.24-3.33,44.58-2.17,66.94.59,11.35,1.93,22.66,2.88,33.98.2,2.33.36,4.68.22,6.99-.71,11.62.51,23.08,2.45,34.51.79,4.68,1.2,9.45,1.45,14.19.32,6.25-1.87,9.03-7.87,10.83-3.44,1.01-6.82,2.29-10.31,3.09-3.95.9-7.02-.48-8.72-4.1-1.31-2.77-2.44-5.77-2.92-8.77-14.51-89.19-33.78-177.35-58.29-264.32-21.21-75.28-46.13-149.29-77.46-221.03-17.46-39.96-36.85-78.9-60.57-115.56-13.71-21.18-28.67-41.4-47.1-58.8-10.23-9.68-21.3-18.2-34.55-23.41-6.55-2.57-13.03-5.52-19.8-7.24-14.43-3.68-29.17-4.24-43.95-2.49-30.43,3.6-57.79,14.89-82.47,32.89-1.88,1.37-3.81,2.73-5.9,3.72-3.87,1.82-7.71,1.25-10.89-1.52-3.09-2.7-2.85-6.32-1.37-9.7,1.7-3.91,3.71-7.7,5.8-11.42,3.84-6.87,7.78-13.67,11.77-20.47,20.68-35.27,50.18-59.87,88.81-73.45,12.94-4.54,25.96-8.77,39.5-11.14,6.47-1.14,12.3.48,16.92,5.09,2.56,2.56,4.86,5.62,6.5,8.86,5.1,10.16,9.24,20.65,12.02,31.8,1.86,7.44,5.48,14.49,8.9,21.44,1.96,3.98,5.68,6.47,10.22,7.61,6.47,1.62,12.92,2.19,19.61,1.71,18.81-1.34,37.63-2.41,56.45-3.34,7.47-.37,14.68,1,21.28,4.94,12.52,7.49,20.07,18.19,21.17,32.92.38,5.21.06,10.48.06,15.73.75,15.74-1.96,31.17-4.11,46.66-1.23,8.86-.99,17.65,1.21,26.34.32,1.23.71,2.47.71,3.71,0,7.05,3.75,11.77,8.81,16.26,9.71,8.59,21.36,13.45,33.11,18,12.21,4.73,23.92,10.31,34.75,17.65,10.37,7.03,18.12,16.47,23.88,27.43,5.36,10.17,5.27,21.18,3.23,32.18-1.86,9.99-5.56,19.35-9.75,28.61-7.19,15.84-13.62,31.97-17.73,48.96-1.45,5.98-.24,11.04,4.23,15.12,6.39,5.83,12.81,11.63,19.49,17.1,5.78,4.73,11.74,9.28,17.97,13.41,12.62,8.36,24.44,17.68,34.41,29.08,10.91,12.45,17.91,27.05,21.3,43.21Zm-19.16,28.34c2.75-9.01,4.96-18.17,2.4-27.52-3.65-13.27-9.23-25.78-19.29-35.45-7.81-7.51-16.37-14.29-24.88-21.04-7.91-6.26-16.45-11.76-24.28-18.1-7.37-5.99-14.47-12.37-21.2-19.08-7.7-7.65-9.73-17.14-7.37-27.72,4.08-18.41,11.59-35.6,18.71-52.94,2.97-7.26,6.09-14.54,8.13-22.09,2.73-10.1,2.77-20.17-3.74-29.34-5.75-8.13-12.57-14.87-21.18-20.08-10.23-6.19-21.36-10.22-32.28-14.77-13.45-5.61-26.22-12.3-36.48-23.02-3.4-3.55-6.46-7.3-7.7-12.16-3.68-14.5-5.88-29.15-3.85-44.15.75-5.58,1.58-11.16,2.41-16.73,1.97-13.41,2.44-26.9,1.82-40.43-.38-8.46-3.69-15.29-10.86-20.24-4.48-3.08-9.29-4.45-14.55-4.17-18.82,1-37.65,1.94-56.45,3.35-8.39.63-16.45-.28-24.53-2.26-8.81-2.17-15.54-7.26-20.12-14.84-5.59-9.26-9.16-19.38-12.08-29.87-2.54-9.08-6.86-17.68-10.46-26.46-.73-1.78-2.19-2.31-4.22-2.39-8.08-.28-15.49,2.45-23.03,4.67-34.31,10.07-63.94,27.17-85.12,56.87-3.75,5.27-7.21,10.75-10.8,16.15l.82.82c.77-.33,1.55-.63,2.28-1.01,16.04-8.39,32.88-14.5,50.65-17.98,20.9-4.07,41.9-5.26,62.65.51,12.47,3.45,24.87,7.42,36.21,13.95,16.3,9.38,29.75,22.11,42.08,36.1,21.67,24.54,39.24,51.92,55.16,80.39,30.74,54.95,55.05,112.78,76.48,171.88,22.08,60.91,40.65,122.87,56.8,185.59,14.06,54.61,26.05,109.66,36.34,165.1.36,1.92.72,3.85,1.08,5.78.66-2.39.8-4.69.63-6.97-.97-11.82-2.33-23.61-2.95-35.44-1.21-23.54-.49-47.05,2.36-70.43,1.4-11.37,2.46-22.89,5.27-33.93,4.32-17.03,10.01-33.71,15.13-50.52Z"/><path class="cls-5" d="m750.5,511.97c2.56,9.35.35,18.51-2.4,27.52-5.12,16.82-10.81,33.5-15.13,50.52-2.81,11.04-3.87,22.56-5.27,33.93-2.86,23.39-3.58,46.9-2.36,70.43.62,11.83,1.98,23.62,2.95,35.44.17,2.28.02,4.58-.63,6.97-.36-1.93-.72-3.86-1.08-5.78-10.3-55.44-22.29-110.49-36.34-165.1-16.15-62.71-34.72-124.68-56.8-185.59-21.43-59.1-45.75-116.92-76.48-171.88-15.93-28.47-33.5-55.86-55.16-80.39-12.34-13.98-25.79-26.72-42.08-36.1-11.33-6.52-23.73-10.49-36.21-13.95-20.75-5.77-41.75-4.58-62.65-.51-17.77,3.48-34.61,9.59-50.65,17.98-.73.38-1.51.68-2.28,1.01l-.82-.82c3.59-5.4,7.05-10.88,10.8-16.15,21.18-29.7,50.81-46.8,85.12-56.87,7.54-2.21,14.95-4.95,23.03-4.67,2.03.07,3.49.61,4.22,2.39,3.6,8.77,7.92,17.37,10.46,26.46,2.92,10.49,6.48,20.62,12.08,29.87,4.58,7.57,11.31,12.67,20.12,14.84,8.08,1.98,16.14,2.9,24.53,2.26,18.8-1.41,37.63-2.35,56.45-3.35,5.26-.28,10.07,1.09,14.55,4.17,7.18,4.95,10.48,11.78,10.86,20.24.62,13.52.15,27.01-1.82,40.43-.83,5.57-1.66,11.15-2.41,16.73-2.03,15,.17,29.65,3.85,44.15,1.24,4.86,4.29,8.61,7.7,12.16,10.26,10.72,23.03,17.41,36.48,23.02,10.93,4.55,22.05,8.59,32.28,14.77,8.61,5.21,15.43,11.95,21.18,20.08,6.51,9.17,6.47,19.24,3.74,29.34-2.04,7.55-5.16,14.82-8.13,22.09-7.12,17.34-14.63,34.52-18.71,52.94-2.35,10.58-.32,20.07,7.37,27.72,6.73,6.71,13.82,13.09,21.2,19.08,7.83,6.35,16.37,11.84,24.28,18.1,8.51,6.74,17.08,13.52,24.88,21.04,10.06,9.68,15.64,22.19,19.29,35.45Z"/><path class="cls-3" d="m708.91,795.42c.93,7.07-.73,13.15-6.74,18.13-16.32,13.48-34.72,23.15-54.16,31.05-30.5,12.4-62.28,20.13-94.7,25.38-45.86,7.42-92,9.5-138.34,6.5-37.67-2.44-74.79-8.06-110.71-20.06-18.68-6.25-36.83-13.83-52.58-25.94-5.96-4.58-11.16-10.18-16.45-15.58-3.06-3.12-4.32-7.16-4.91-11.59-.82-6.15-2.36-12.2-3.39-18.33-2.49-14.79-1.16-29.46,1.46-44.08,2.19-12.24,4.57-24.45,6.86-36.68.73-3.87.73-3.9-3.32-4.29-34.67-3.46-67.03-14.07-97.11-31.58-19.24-11.2-37.02-24.3-52.43-40.51-.8-.85-2.81-1.08-4.13-.85-7.98,1.31-15.97,2.29-24.07,1.27-18.45-2.33-32.06-11.32-39.14-28.93-7.15-17.81-13.38-35.95-14.63-55.28-.35-5.46.17-11.11,1.26-16.48,2.03-9.97,3.86-20.07,8.58-29.29.31-.61.27-1.84-.15-2.3-3.16-3.45-3.45-7.73-3.56-12.02-.35-12.4,2.07-24.34,6.1-36.02,5.56-16.1,14.44-30.07,26.55-42,1.24-1.23,2.72-2.19,4.5-3.61-1.7-1.05-2.34-1.47-2.99-1.86-5.85-3.42-9.14-8.6-8.09-15.24,1.57-9.85,4.07-19.55,6.09-29.34.35-1.72.59-3.63.22-5.3-4.15-18.43-4.94-36.79,1.27-54.93,3.07-8.95,8.3-16.43,16.11-21.99.74-.52,1.51-1.36,1.76-2.2,4.39-15.05,13.09-27.52,23.7-38.67,35.19-36.95,72.12-71.96,115.09-99.93,20.29-13.22,41.27-25.28,63.08-35.82,1.92-.93,3.92-1.74,5.95-2.35,3.54-1.04,6.82-.37,9.37,2.39,2.65,2.87,2.83,6.27,1.45,9.8-.46,1.18-1.05,2.3-1.68,3.39-9.12,16.04-15.55,33.25-21.96,50.45-.2.52-.28,1.08-.61,2.36,1.41-.85,2.26-1.35,3.09-1.88,32-20.49,65.01-39.08,101-51.65,10.31-3.61,21.1-6.16,31.86-8.01,7.68-1.32,15.55.35,23.3,2.02,9.79,2.1,18.91,5.78,27.63,10.42,4.48,2.39,8.43,5.8,12.53,8.86,17.89,13.28,32.49,29.77,45.88,47.39,22.48,29.6,40.88,61.7,57.61,94.8,25.96,51.35,47.29,104.64,66.08,158.97,25.74,74.39,46.25,150.23,62.61,227.21,10.15,47.74,18.46,95.8,24.85,144.2Zm-18.82,6.53c1.91-1.53,2.54-3.09,2.17-5.49-3.06-20.17-5.74-40.41-9.07-60.53-10.49-63.33-24.23-125.96-41.06-187.9-20.66-76.06-45.4-150.72-76.93-223.03-17.34-39.78-36.6-78.58-60.04-115.19-14.08-21.98-29.44-42.98-48.38-61.12-10.17-9.74-21.18-18.36-34.38-23.63-8.64-3.44-17.46-6.72-26.93-6.74-10.27-.02-20.28,1.99-29.87,5.61-43.78,16.51-85.37,37-121.33,67.57-2.72,2.31-5.83,3.16-9.22,1.7-3.49-1.5-5.17-4.39-5.2-8.08-.02-2.12.35-4.26.8-6.34,3.9-17.94,10.62-34.92,17.77-51.76.82-1.92,1.62-3.85,2.73-6.52-1.53.64-2.33.9-3.03,1.3-19.3,10.51-38.26,21.62-56.13,34.44-37.13,26.6-70.12,57.89-101.21,91.18-6.37,6.83-11.16,15.12-16.62,22.79-.73,1.03-1.76,2.2-.09,3.51,5.01,3.93,7.67,9.48,9.8,15.26,6.92,18.75,10.34,38.22,11.73,58.1.1,1.3.31,2.6.52,4.39,21.17-8.23,42.43-9.53,64.3-4.44.11-.28.37-.71.46-1.15,2.77-13.08,8.93-24.61,16.32-35.54,16.82-24.87,40.4-41.08,67.59-52.61,17.31-7.34,35.56-11.24,54.05-14.03,21.31-3.23,42.5-3.77,63.42,3.23,16.16,5.41,25.59,20.48,22.83,37.13-2.57,15.53-5.31,31.06-6.97,46.7-2.67,25.02-16.63,41.19-38.57,51.43-6.31,2.95-13.07,4.96-19.61,7.41-.56.21-1.05.54-2.15,1.13,6.76,1.23,12.87,2.21,18.92,3.45,8.41,1.72,16.67,4,24.06,8.55,4.27,2.62,5.57,7.19,3.55,11.06s-6.57,5.53-11.09,3.33c-9.85-4.83-20.37-6.97-31.05-8.67-10.65-1.71-21.3-3.64-32.16-2.09-12.4,1.76-24.2,5.72-35.82,10.17-24.88,9.55-46.49,23.76-62.49,45.56-.78,1.06-1.48,2.18-2.28,3.34.52.3.74.52,1,.56,1.44.17,2.88.33,4.34.45,10.23.8,20.16,3.04,28.56,9.09,13.74,9.87,26.9,20.26,34.98,35.95,9.7,18.87,12.52,38.19,6.71,58.65-.22.77-.35,1.56-.61,2.76,1.63-.47,2.75-.78,3.85-1.1,16.23-4.8,31.31-11.98,45.51-21.25,20.02-13.07,40.67-25.16,60.48-38.51,29.62-19.98,49.42-47.34,58.85-82.04,1.62-5.98,3.89-11.8,6.09-17.62.99-2.64,2.38-5.33,5.89-5.15,2.62.14,4.62,2.64,5.46,6.46.15.66.27,1.35.26,2.02-.07,4.95.53,10.05-.45,14.81-2.61,12.75-5.48,25.47-9.01,37.98-7.39,26.15-16.02,51.82-31.53,74.59-12.37,18.15-26.05,34.92-46.08,45.23-1.86.95-2.19,2.31-2.31,4.23-.79,12.89-1.47,25.8-2.7,38.66-.66,6.84-2.14,13.64-3.58,20.38-.94,4.42-3.95,6.87-7.78,7.14-3.7.26-6.71-1.73-8.54-5.83-.99-2.21-1.78-4.52-2.62-6.79-4.41-11.84-8.79-23.68-13.19-35.51-.32-.87-.77-1.68-1.29-2.81-4.43,2.92-8.51,5.7-12.7,8.32-2.18,1.35-3.48,2.92-4.03,5.61-1.11,5.41-6.47,7.86-10.96,5.1-1.91-1.16-3.32-.89-5.12-.17-12.26,4.84-24.27,10.38-37.04,13.86-9.55,2.61-19.04,5.57-28.71,7.67-24.79,5.37-49.76,7.55-74.95,2.83-3.9-.73-7.81-1.37-12.05-2.12.26.73.26.98.38,1.06.54.41,1.1.8,1.68,1.16,19.29,11.77,39.82,20.68,61.72,26.31,41.23,10.59,82.24,8.98,123.01-2.47,42.93-12.05,81.04-33.45,116.06-60.65,34.68-26.94,64.64-58.53,91.35-93.3,1.29-1.68,2.71-3.35,4.38-4.62,2.61-1.97,5.63-2.13,8.53-.56,2.81,1.53,4.44,4.08,3.97,7.21-.35,2.29-1.34,4.7-2.69,6.58-3.58,4.97-7.44,9.74-11.3,14.49-32.17,39.63-68.48,74.85-111.34,102.88-51.7,33.79-107.56,54.77-170.24,54.05-1.92-.02-2.41.64-2.61,2.47-1.21,11.21-2.39,22.42-3.93,33.57-1.84,13.4-4.22,26.78-2.45,40.33,1.08,8.27,2.82,16.47,4.5,24.64.4,1.87,1.39,4,2.78,5.2,5.83,4.96,11.59,10.13,17.98,14.29,18.03,11.74,38.11,18.8,58.74,24.34,39.87,10.72,80.6,14.82,121.76,15.28,32.42.36,64.68-1.86,96.75-6.73,31.99-4.85,63.37-12.14,93.55-24.01,18.35-7.2,35.84-16,51.32-28.44Zm-293.82-268.27c6.42-10.13,12.55-20.42,16.88-32.23-6.1,5.38-11.76,10.34-17.36,15.37-.43.4-.68,1.2-.69,1.81-.05,4.92-.02,9.86-.02,14.79.4.09.8.19,1.2.27Zm-17.22,12.88c.37-5.73.74-11.47,1.11-17.2-.26-.12-.53-.24-.79-.36-.95.64-1.92,1.26-2.86,1.92q-6.58,4.55-1.93,11.29c1.14,1.65,2.44,3.18,3.66,4.76.26-.14.53-.27.8-.41Zm-8.04,16.94c1.52-1.18,1.32-2.08.33-3.6-3.51-5.46-6.79-11.06-10.18-16.59-.28-.47-.64-.89-.97-1.34-.22.09-.46.16-.69.25.61,9.28,1.21,18.57,1.82,27.87.31.14.62.28.92.43,2.92-2.35,5.82-4.74,8.77-7.02Zm-3.64-279.85c3.39-7.88,1.72-13.57-5.4-18.41-2.08-1.42-4.15-2.88-6.3-4.19-1.13-.68-2.39-1.39-3.65-1.51-7.83-.73-15.68-1.3-23.09-1.88-30.33,1.44-59.4,6.36-86.59,19.43-22.81,10.96-41.77,26.34-55.11,48.28-8.7,14.32-12.62,29.71-12.29,46.37.12,5.82,2.21,10.08,7.19,13.4,5.7,3.79,11.89,5.46,18.5,6.52,11.07,1.78,20.21-1.41,27.21-10.15,4.48-5.61,8.71-11.42,12.94-17.24,11.76-16.19,26.8-27.98,45.82-34.51,6.79-2.34,13.59-4.69,20.4-6.98,14.85-4.97,29.52-10.26,42.95-18.6,8.12-5.02,13.7-11.92,17.41-20.53Zm-4.79,37.85c.28-1.86.57-3.71.99-6.47-12.58,8.71-25.64,14.5-39.56,19.49,6.22,10.26,10.25,20.48,8.41,32.44,1.18-.4,1.86-.51,2.43-.82,14.12-7.57,24.54-17.93,26.32-34.86.35-3.28.93-6.52,1.41-9.79Zm-18.77,295.31c1.57-21.49,1.71-42.98-.57-64.98-5.79,3.56-11.03,6.86-16.36,10.01-1.72,1.03-2.23,2.18-1.65,4.06,3.29,10.56,6.35,21.18,9.87,31.65,2.2,6.58,5.11,12.93,7.7,19.39.33-.05.67-.09,1-.14Zm-27.85-18.61c1.73-.52,1.99-1.37,1.47-3.02-1.51-4.7-2.86-9.45-4.29-14.18-.11-.36-.47-.63-.97-1.25-1.16,7.08-2.25,13.72-3.46,21.06,2.91-1.05,5.05-1.94,7.25-2.61Zm-3.45-224.74c3.01-6.4,5.67-12.88,4.05-20.18-.95-4.27-2.12-8.48-3.09-12.73-.36-1.58-1-2.15-2.62-1.55-9.64,3.61-19.3,7.15-28.93,10.78-1.29.49-2.43,1.4-3.8,2.2,6.97,8.04,10.41,17.16,11.37,28.09,7.4-1.79,14.37-3.45,21.31-5.21.67-.17,1.44-.79,1.72-1.4Zm-15.88,225.08c2.24-7.7,4.23-14.53,6.43-22.1-5.59,2.33-10.3,4.29-15.34,6.4,2.93,5.17,5.73,10.11,8.91,15.7Zm-12.14,13.19c.49-.2.84-2.02.52-2.72-2.35-5.01-4.78-9.99-7.4-14.86-3.7-6.9-3.76-6.78-11.14-4.38-2.09.67-2.66,1.78-2.6,3.81.14,5.05.1,10.1.11,15.15.01,3.37,0,6.74,0,10.86,7.34-2.77,13.97-5.22,20.5-7.86Zm-30.54,1.13c.45-6.73.87-12.89,1.31-19.53-5.07,1.29-9.53,2.43-14.34,3.65,4.45,5.42,8.53,10.39,13.03,15.88Zm-4.86-47.68c3.25-9.26,2.9-18.73,1.03-28.21-2.52-12.86-8.7-23.82-17.87-33.04-3.76-3.76-8.12-6.93-12.19-10.39-5.27-4.47-11.12-8.02-17.98-9.13-7.18-1.18-14.45-1.74-21.69-2.45-.83-.09-1.83.51-2.59,1.03-3.43,2.36-6.64,5.09-10.25,7.18-5.78,3.35-11.95,6.05-17.68,9.49-6.5,3.91-10.51,9.52-10.41,17.57.04,2.98-.52,6-1.08,8.96-2.87,15.28-3.01,30.5.9,45.66,4.44,17.21,17.47,27.45,35.15,27.52h3.2c.01.06.01.11.02.17,4.63-.48,9.33-.62,13.88-1.53,6.17-1.23,12.24-3.07,18.35-4.6,3.07-.78,5.89-1.68,7.4-4.94.52-1.13,1.81-2.17,2.99-2.66,3.46-1.46,6.99-2.92,10.63-3.84,9.19-2.29,15.08-8.06,18.15-16.78Zm-4.59,60.65c-.19-.78-.17-1.11-.33-1.34-4.75-6.48-9.48-12.99-14.37-19.39-.38-.51-1.92-.56-2.73-.28-5.8,1.91-11.52,4.1-17.34,5.93-14.64,4.63-29.61,6.21-44.89,4.73-8.45-.82-16.07-3.6-22.31-9.6-1.66-1.61-3.42-3.11-5.36-4.86-8.36,12.57-22.66,14.25-34.97,19.98,20.85,9.96,43.24,13.81,65.82,15.48,26.08,1.93,51.5-3.24,76.48-10.64Zm-4.44-222.15c-5.56.22-11.19-1.51-16.43,1.68-1.46.89-3.2,1.42-4.9,1.78-15.47,3.32-30.08,1.16-43.74-6.95-1.06-.63-2.1-1.32-3.65-2.31-.26,3.16-.35,5.65-.68,8.13-1.13,8.56-2.39,17.11-3.46,25.68-.11.9.42,2.52,1.06,2.8,6.1,2.52,11.41,6.13,16.06,11.37,14.4-19.8,34.68-31.43,55.75-42.17Zm-69.12,56.01c.47-3.02-.94-5.7-4.07-7.15-3.13-1.44-6.48-2.39-9.73-3.61-2.31-.87-4.6-1.84-6.9-2.75-1.53-.61-3.12-1.74-4.63-1.67-9.32.47-18.6,1.35-27.9,1.86-9.75.53-18.88,3.22-27.82,7.02-4.83,2.05-8.23,5.17-10.38,9.97-2.35,5.22-2.02,9.79,1.83,13.96.64.71,2.26,1.18,3.14.89,5.35-1.78,10.7-1.6,16.12-.58,8.9,1.66,14.94,6.47,17.55,15.39.93,3.14,2.38,6.14,3.85,9.08.26.54,2.04.94,2.62.58.87-.53,1.72-1.74,1.84-2.76.72-6.17,4.05-11.01,7.7-15.74,7.71-10.01,18.97-13.4,30.45-16.28,5.79-1.45,6.3-1.77,6.32-8.2Zm-13.38-76.66c1.72-.57,1.83-1.39,1.72-2.99-.4-5.51-.54-11.03-.77-16.53-.05-1.14-.01-2.29-.01-2.99-9.71,0-19.03-.42-28.31.1-11.32.63-22.2,3.49-32.47,8.48-3.11,1.51-4.86,3.82-4.95,7.26-.06,2.21-.19,4.5.25,6.64,1.57,7.61,3.03,8.72,10.74,8.85.97.01,1.94.02,2.91-.01,17.35-.71,34.38-3.32,50.89-8.8Zm-3.85,25.84c.4-2.43.74-4.86,1.11-7.3-.71-.09-.9-.16-1.08-.11-17.88,5.06-36.11,7.33-54.68,6.84-.66-.01-1.78.87-1.96,1.52-2,7.61-2.36,15.26.04,23.1,1.6-.37,3.25-.97,4.95-1.11,15.26-1.3,30.53-2.55,45.8-3.71,1.67-.14,2.85.01,3.13-2.28.71-5.67,1.78-11.3,2.69-16.95Zm-27.5,177.94c.33-.57,0-1.68-.28-2.45-4.94-13.12-6.82-26.74-6.16-40.65.32-6.76,1.73-13.46,2.67-20.18.21-1.46.72-2.86-1.56-3.27-6.6-1.18-11.61-5.12-15.47-10.21-5.14-6.78-12.02-10.51-19.92-12.23-9.06-1.97-15.83-6.56-20.36-14.61-.41-.72-1.66-1.39-2.47-1.34-8.66.46-16.23,4.33-23.89,7.88-1.1.51-1.96,1.57-2.83,2.47-8.19,8.49-14.43,18.03-16.06,30.04-.22,1.62-.93,3.19-1.14,4.81-.68,5.37-2.12,10.84-1.67,16.14,1.61,18.88,7.45,36.68,15.39,53.79,2.83,6.09,7.75,10.34,14.13,12.28,5.33,1.61,10.91,2.38,16.38,3.53.06-.28.12-.56.17-.83,15.31-.01,44.81-10.65,54.98-15.52,4.13-1.98,5.95-5.99,8.09-9.66Zm-40.98-180.51c.79-2.26-.73-3.22-1.79-4.45-.36-.41-1.35-.53-1.98-.41-3.27.67-6.53,1.39-9.78,2.21-2.12.54-4.48.84-6.21,2.03-20.57,14.06-34.13,33.11-39.96,57.42-1.35,5.61-1.86,11.41-2.73,17.13.33.07.68.16,1.03.25.25-.14.53-.22.73-.4,9.8-8.48,21.44-11.67,34.12-11.77,1.68-.02,2.26-.37,2.66-2.1,2.69-11.46,7.55-21.43,19.04-26.63.52-.22.95-.63,1.57-1.05-2.7-5.9-2.12-12.02-.89-18,.99-4.83,2.57-9.55,4.19-14.22Zm-5.52-43.52c.28-.78.26-1.73.2-2.59-.58-7.56-.98-15.13-1.84-22.66-1.74-15.2-4.75-30.14-10.42-44.42-.66-1.66-1.65-3.18-2.5-4.76-3.8,2.25-7.03,6.73-9.17,12.51-3.27,8.84-3.75,18-3.5,27.3.43,15.86,4.71,30.11,17.03,41.01,1.83,1.62,3.95,2.92,6.13,4.5,1.58-4.19,2.9-7.51,4.08-10.89Zm-28.3,14.94c.94-3.32-.72-4.95-3.53-7.19-.38,4.97-.82,9.33-1.01,13.71-.09,2.21,1.58,2.5,3.39,2.47.37-3.12.35-6.17,1.15-9Z"/><path class="cls-5" d="m692.25,796.46c.37,2.4-.26,3.96-2.17,5.49-15.48,12.44-32.96,21.23-51.32,28.44-30.18,11.87-61.56,19.16-93.55,24.01-32.07,4.88-64.33,7.09-96.75,6.73-41.16-.46-81.89-4.57-121.76-15.28-20.63-5.54-40.71-12.6-58.74-24.34-6.39-4.16-12.15-9.33-17.98-14.29-1.4-1.2-2.39-3.33-2.78-5.2-1.68-8.17-3.43-16.37-4.5-24.64-1.77-13.55.61-26.93,2.45-40.33,1.55-11.15,2.72-22.36,3.93-33.57.2-1.83.69-2.5,2.61-2.47,62.69.72,118.54-20.26,170.24-54.05,42.86-28.03,79.17-63.24,111.34-102.88,3.86-4.75,7.72-9.52,11.3-14.49,1.35-1.88,2.34-4.29,2.69-6.58.47-3.13-1.16-5.68-3.97-7.21-2.9-1.57-5.91-1.41-8.53.56-1.67,1.26-3.09,2.93-4.38,4.62-26.7,34.77-56.66,66.36-91.35,93.3-35.02,27.2-73.13,48.59-116.06,60.65-40.77,11.46-81.78,13.07-123.01,2.47-21.9-5.63-42.43-14.54-61.72-26.31-.58-.36-1.14-.75-1.68-1.16-.12-.09-.12-.33-.38-1.06,4.24.74,8.15,1.39,12.05,2.12,25.19,4.71,50.16,2.54,74.95-2.83,9.66-2.1,19.16-5.06,28.71-7.67,12.77-3.48,24.77-9.02,37.04-13.86,1.81-.72,3.22-.99,5.12.17,4.49,2.76,9.85.31,10.96-5.1.56-2.69,1.86-4.26,4.03-5.61,4.18-2.61,8.27-5.4,12.7-8.32.52,1.13.97,1.94,1.29,2.81,4.41,11.83,8.79,23.67,13.19,35.51.84,2.28,1.63,4.58,2.62,6.79,1.83,4.1,4.84,6.09,8.54,5.83,3.84-.27,6.84-2.72,7.78-7.14,1.44-6.74,2.92-13.54,3.58-20.38,1.23-12.86,1.91-25.76,2.7-38.66.12-1.92.46-3.28,2.31-4.23,20.03-10.31,33.71-27.07,46.08-45.23,15.5-22.77,24.14-48.44,31.53-74.59,3.53-12.51,6.4-25.23,9.01-37.98.98-4.76.37-9.86.45-14.81.01-.67-.11-1.36-.26-2.02-.84-3.82-2.83-6.32-5.46-6.46-3.51-.19-4.9,2.51-5.89,5.15-2.2,5.82-4.47,11.64-6.09,17.62-9.43,34.7-29.23,62.06-58.85,82.04-19.81,13.35-40.46,25.44-60.48,38.51-14.21,9.27-29.28,16.45-45.51,21.25-1.1.32-2.21.63-3.85,1.1.26-1.2.38-1.99.61-2.76,5.82-20.47,2.99-39.78-6.71-58.65-8.08-15.69-21.25-26.07-34.98-35.95-8.4-6.05-18.33-8.29-28.56-9.09-1.46-.11-2.91-.27-4.34-.45-.26-.04-.48-.26-1-.56.79-1.16,1.5-2.28,2.28-3.34,16-21.8,37.6-36.01,62.49-45.56,11.62-4.45,23.42-8.41,35.82-10.17,10.86-1.55,21.51.38,32.16,2.09,10.68,1.71,21.2,3.85,31.05,8.67,4.52,2.2,9.07.54,11.09-3.33s.72-8.44-3.55-11.06c-7.39-4.55-15.64-6.83-24.06-8.55-6.05-1.24-12.16-2.23-18.92-3.45,1.1-.58,1.6-.92,2.15-1.13,6.55-2.45,13.3-4.47,19.61-7.41,21.94-10.23,35.9-26.41,38.57-51.43,1.66-15.64,4.39-31.17,6.97-46.7,2.76-16.66-6.67-31.73-22.83-37.13-20.91-7-42.11-6.46-63.42-3.23-18.49,2.8-36.74,6.69-54.05,14.03-27.19,11.53-50.77,27.74-67.59,52.61-7.39,10.93-13.55,22.46-16.32,35.54-.09.45-.35.87-.46,1.15-21.87-5.09-43.12-3.79-64.3,4.44-.21-1.79-.42-3.09-.52-4.39-1.39-19.87-4.81-39.35-11.73-58.1-2.13-5.78-4.79-11.32-9.8-15.26-1.67-1.31-.64-2.49.09-3.51,5.46-7.67,10.25-15.96,16.62-22.79,31.08-33.3,64.07-64.58,101.21-91.18,17.87-12.82,36.83-23.93,56.13-34.44.71-.4,1.5-.66,3.03-1.3-1.11,2.67-1.92,4.6-2.73,6.52-7.15,16.84-13.87,33.82-17.77,51.76-.46,2.08-.83,4.22-.8,6.34.02,3.69,1.71,6.58,5.2,8.08,3.39,1.46,6.5.62,9.22-1.7,35.96-30.58,77.55-51.07,121.33-67.57,9.59-3.61,19.6-5.63,29.87-5.61,9.47.02,18.29,3.3,26.93,6.74,13.19,5.27,24.2,13.9,34.38,23.63,18.94,18.14,34.3,39.14,48.38,61.12,23.44,36.61,42.7,75.41,60.04,115.19,31.53,72.31,56.26,146.97,76.93,223.03,16.83,61.94,30.56,124.57,41.06,187.9,3.33,20.12,6.01,40.36,9.07,60.53Z"/><path class="cls-4" d="m413.14,501.45c-4.33,11.82-10.46,22.1-16.88,32.23-.4-.09-.8-.19-1.2-.27,0-4.92-.02-9.86.02-14.79.01-.61.26-1.41.69-1.81,5.61-5.02,11.26-9.99,17.36-15.37Z"/><path class="cls-2" d="m380.15,529.37c-.37,5.73-.74,11.47-1.11,17.2-.27.14-.54.27-.8.41-1.23-1.58-2.52-3.12-3.66-4.76q-4.67-6.72,1.93-11.29c.94-.66,1.91-1.27,2.86-1.92.26.12.53.24.79.36Z"/><path class="cls-4" d="m371.33,559.91c.99,1.52,1.19,2.43-.33,3.6-2.96,2.28-5.85,4.67-8.77,7.02-.3-.15-.61-.3-.92-.43-.61-9.29-1.21-18.59-1.82-27.87.24-.09.47-.16.69-.25.32.45.68.87.97,1.34,3.39,5.53,6.67,11.14,10.18,16.59Z"/><path class="cls-5" d="m361.96,265.24c7.12,4.84,8.79,10.53,5.4,18.41-3.71,8.61-9.29,15.5-17.41,20.53-13.43,8.34-28.1,13.62-42.95,18.6-6.82,2.29-13.61,4.64-20.4,6.98-19.02,6.53-34.07,18.33-45.82,34.51-4.23,5.82-8.46,11.63-12.94,17.24-7,8.74-16.14,11.93-27.21,10.15-6.61-1.06-12.79-2.73-18.5-6.52-4.97-3.32-7.07-7.59-7.19-13.4-.33-16.66,3.59-32.05,12.29-46.37,13.34-21.94,32.31-37.32,55.11-48.28,27.2-13.07,56.26-17.99,86.59-19.43,7.41.58,15.26,1.15,23.09,1.88,1.26.12,2.52.83,3.65,1.51,2.15,1.31,4.22,2.77,6.3,4.19Z"/><path class="cls-2" d="m363.56,315.04c-.42,2.76-.71,4.62-.99,6.47-.48,3.27-1.06,6.51-1.41,9.79-1.78,16.93-12.2,27.28-26.32,34.86-.57.31-1.25.42-2.43.82,1.83-11.97-2.19-22.19-8.41-32.44,13.92-4.99,26.98-10.78,39.56-19.49Z"/><path class="cls-2" d="m343.23,551.84c2.28,22,2.14,43.48.57,64.98-.33.05-.67.09-1,.14-2.59-6.46-5.49-12.81-7.7-19.39-3.53-10.47-6.58-21.1-9.87-31.65-.58-1.88-.07-3.03,1.65-4.06,5.33-3.16,10.57-6.45,16.36-10.01Z"/><path class="cls-4" d="m317.42,595.19c.52,1.65.26,2.5-1.47,3.02-2.2.67-4.34,1.56-7.25,2.61,1.21-7.34,2.3-13.98,3.46-21.06.49.62.85.89.97,1.25,1.44,4.73,2.78,9.48,4.29,14.18Z"/><path class="cls-1" d="m316.54,353.29c1.62,7.3-1.04,13.78-4.05,20.18-.28.61-1.05,1.23-1.72,1.4-6.94,1.76-13.91,3.42-21.31,5.21-.97-10.93-4.41-20.05-11.37-28.09,1.37-.8,2.51-1.71,3.8-2.2,9.63-3.63,19.29-7.16,28.93-10.78,1.62-.61,2.26-.04,2.62,1.55.98,4.26,2.14,8.46,3.09,12.73Z"/><path class="cls-2" d="m303.05,576.45c-2.2,7.57-4.19,14.4-6.43,22.1-3.18-5.59-5.98-10.53-8.91-15.7,5.05-2.1,9.75-4.07,15.34-6.4Z"/><path class="cls-4" d="m285,609.02c.32.71-.02,2.52-.52,2.72-6.53,2.64-13.17,5.09-20.5,7.86,0-4.12.01-7.5,0-10.86-.01-5.05.02-10.1-.11-15.15-.06-2.03.51-3.14,2.6-3.81,7.37-2.4,7.44-2.52,11.14,4.38,2.62,4.88,5.05,9.85,7.4,14.86Z"/><path class="cls-2" d="m255.25,593.34c-.45,6.63-.87,12.79-1.31,19.53-4.5-5.48-8.58-10.46-13.03-15.88,4.81-1.23,9.27-2.36,14.34-3.65Z"/><path class="cls-5" d="m250.1,536.98c1.87,9.48,2.23,18.96-1.03,28.21-3.07,8.72-8.96,14.49-18.15,16.78-3.64.92-7.16,2.38-10.63,3.84-1.19.49-2.47,1.53-2.99,2.66-1.51,3.25-4.33,4.16-7.4,4.94-6.11,1.53-12.18,3.38-18.35,4.6-4.55.92-9.26,1.05-13.88,1.53-.01-.06-.01-.11-.02-.17h-3.2c-17.68-.07-30.71-10.31-35.15-27.52-3.91-15.16-3.77-30.38-.9-45.66.56-2.96,1.11-5.98,1.08-8.96-.1-8.06,3.91-13.66,10.41-17.57,5.73-3.44,11.9-6.14,17.68-9.49,3.6-2.09,6.82-4.81,10.25-7.18.75-.52,1.76-1.11,2.59-1.03,7.24.71,14.51,1.27,21.69,2.45,6.86,1.11,12.71,4.67,17.98,9.13,4.07,3.46,8.43,6.63,12.19,10.39,9.17,9.22,15.34,20.18,17.87,33.04Z"/><path class="cls-4" d="m244.15,624.5c.16.22.15.56.33,1.34-24.98,7.4-50.4,12.57-76.48,10.64-22.58-1.67-44.97-5.52-65.82-15.48,12.31-5.73,26.6-7.41,34.97-19.98,1.94,1.76,3.7,3.25,5.36,4.86,6.24,6,13.86,8.79,22.31,9.6,15.28,1.48,30.25-.1,44.89-4.73,5.82-1.83,11.53-4.02,17.34-5.93.82-.27,2.35-.22,2.73.28,4.89,6.4,9.61,12.91,14.37,19.39Z"/><path class="cls-5" d="m223.61,405.37c5.25-3.19,10.88-1.46,16.43-1.68-21.06,10.74-41.34,22.37-55.75,42.17-4.65-5.25-9.96-8.85-16.06-11.37-.64-.27-1.18-1.89-1.06-2.8,1.08-8.56,2.34-17.11,3.46-25.68.33-2.47.42-4.97.68-8.13,1.55.99,2.59,1.68,3.65,2.31,13.66,8.12,28.27,10.27,43.74,6.95,1.7-.36,3.44-.89,4.9-1.78Z"/><path class="cls-5" d="m166.85,452.54c3.13,1.45,4.54,4.13,4.07,7.15-.02,6.43-.53,6.76-6.32,8.2-11.48,2.88-22.74,6.27-30.45,16.28-3.65,4.73-6.98,9.57-7.7,15.74-.12,1.01-.98,2.23-1.84,2.76-.58.36-2.36-.04-2.62-.58-1.47-2.95-2.92-5.94-3.85-9.08-2.61-8.92-8.65-13.74-17.55-15.39-5.42-1.01-10.78-1.2-16.12.58-.88.28-2.5-.19-3.14-.89-3.85-4.17-4.18-8.74-1.83-13.96,2.15-4.8,5.56-7.92,10.38-9.97,8.93-3.8,18.07-6.48,27.82-7.02,9.31-.51,18.59-1.39,27.9-1.86,1.51-.07,3.09,1.06,4.63,1.67,2.3.9,4.59,1.88,6.9,2.75,3.24,1.23,6.6,2.18,9.73,3.61Z"/><path class="cls-5" d="m159.26,380.04c.11,1.61,0,2.43-1.72,2.99-16.52,5.48-33.55,8.09-50.89,8.8-.97.04-1.94.02-2.91.01-7.71-.12-9.17-1.24-10.74-8.85-.43-2.14-.31-4.43-.25-6.64.09-3.44,1.84-5.75,4.95-7.26,10.27-4.99,21.15-7.85,32.47-8.48,9.28-.52,18.6-.1,28.31-.1,0,.71-.04,1.86.01,2.99.22,5.51.37,11.03.77,16.53Z"/><path class="cls-5" d="m154.81,401.57c-.37,2.44-.72,4.88-1.11,7.3-.9,5.65-1.98,11.29-2.69,16.95-.28,2.29-1.46,2.14-3.13,2.28-15.27,1.16-30.54,2.41-45.8,3.71-1.7.15-3.35.74-4.95,1.11-2.4-7.85-2.04-15.49-.04-23.1.17-.66,1.3-1.53,1.96-1.52,18.57.48,36.8-1.78,54.68-6.84.17-.05.37.02,1.08.11Z"/><path class="cls-5" d="m125.91,584.36c.28.77.62,1.88.28,2.45-2.14,3.68-3.96,7.68-8.09,9.66-10.17,4.86-39.67,15.5-54.98,15.52-.05.27-.11.54-.17.83-5.47-1.15-11.05-1.92-16.38-3.53-6.39-1.93-11.3-6.19-14.13-12.28-7.94-17.11-13.78-34.91-15.39-53.79-.45-5.3.99-10.77,1.67-16.14.21-1.62.92-3.19,1.14-4.81,1.63-12.02,7.87-21.56,16.06-30.04.88-.9,1.73-1.97,2.83-2.47,7.66-3.55,15.23-7.42,23.89-7.88.82-.05,2.07.62,2.47,1.34,4.53,8.06,11.3,12.65,20.36,14.61,7.91,1.72,14.79,5.44,19.92,12.23,3.86,5.09,8.87,9.03,15.47,10.21,2.28.41,1.77,1.81,1.56,3.27-.94,6.72-2.35,13.43-2.67,20.18-.66,13.91,1.23,27.53,6.16,40.65Z"/><path class="cls-5" d="m83.42,401.84c1.06,1.24,2.59,2.19,1.79,4.45-1.62,4.67-3.2,9.39-4.19,14.22-1.23,5.99-1.81,12.1.89,18-.62.42-1.05.83-1.57,1.05-11.5,5.2-16.36,15.17-19.04,26.63-.4,1.73-.98,2.08-2.66,2.1-12.67.1-24.32,3.29-34.12,11.77-.2.17-.48.26-.73.4-.35-.09-.69-.17-1.03-.25.88-5.72,1.39-11.52,2.73-17.13,5.83-24.3,19.39-43.36,39.96-57.42,1.73-1.19,4.1-1.48,6.21-2.03,3.24-.83,6.51-1.55,9.78-2.21.63-.12,1.62,0,1.98.41Z"/><path class="cls-5" d="m79.9,360.19c.06.85.09,1.81-.2,2.59-1.19,3.38-2.5,6.69-4.08,10.89-2.18-1.58-4.29-2.88-6.13-4.5-12.31-10.9-16.59-25.14-17.03-41.01-.25-9.29.24-18.46,3.5-27.3,2.14-5.78,5.37-10.26,9.17-12.51.85,1.58,1.84,3.11,2.5,4.76,5.67,14.28,8.67,29.23,10.42,44.42.87,7.52,1.26,15.1,1.84,22.66Z"/><path class="cls-2" d="m47.87,370.52c2.81,2.24,4.47,3.87,3.53,7.19-.8,2.82-.78,5.88-1.15,9-1.81.02-3.48-.26-3.39-2.47.2-4.38.63-8.74,1.01-13.71Z"/></svg>